Patient4_TMGait_0pt2_02_left_01_EMG.mot
version=1
nRows=27
nColumns=33
inDegrees=no
endheader
time	1LAddLong	2LGlutMax	3LGlutMed	4LIliopsoas	5LSemiMemb	6LBicFemLong	7LRecFem	8LVastMed	9LVastLat	10LGasMed	11LTibAnt	12lTibPost	13LPeroneusLong	14LSol	15LExtDigLong	16LFlexDigLong	17RAddLong	18RGlutMax	19RGlutMed	20RIliopsoas	21RSemiMemb	22RBicFemLong	23RRecFem	24RVastMed	25RVastLat	26RGasMed	27RTibAnt	28RTibPost	29RPeroneusLong	30RSol	31RExtDigLong	32RFlexDigLong
1.85	0.004578	0.052338	0.042572	0.003204	0.006256	0.029755	0.000458	-0.021667	-0.002136	0.014954	-0.01358	0.031433	0.11231	-0.03479	-0.20721	-0.008698	0.01709	0.19577	0.36102	-0.14084	-0.060883	0.03006	-0.48752	0.69992	0.068207	0.002747	-0.016785	-0.007019	-0.01297	-0.168	-0.002136	-0.019226
1.851	0.007172	0.056763	0.038452	0.017242	0.00412	0.025635	0.018921	-0.016632	0.013275	0.015259	0.003967	0.010071	0.071869	0.021515	-0.058899	-0.003052	0.041046	0.1471	0.77316	0.007782	-0.22263	0.001221	-0.4425	0.53085	0.16937	0.007324	0.009003	-0.005493	-0.10498	-0.14954	-0.004883	-0.020752
1.852	0.00412	-0.001373	0.041656	0.029755	0.011597	0.041199	0.019684	-0.014954	0.003357	0.019226	-0.000153	0.023651	0.058289	0.027313	0.030365	-0.002441	0.097198	0.093231	0.40359	0.19104	-0.25818	-0.014191	-0.12497	-0.061646	0.4071	-0.018158	0.045166	-0.011597	-0.15991	-0.28061	-0.001221	-0.019226
1.853	0.005493	0.004425	0.041046	0.036163	0.002747	0.025787	0.063477	-0.006866	0.014343	0.018311	0.008545	0.019379	0.045166	0.055542	0.10239	0.006409	0.072632	-0.029297	-0.014343	0.16571	-0.088501	0.023956	-0.11536	-0.63187	0.70786	-0.020294	0.063629	-0.012054	-0.015717	-0.50095	-0.002441	-0.022278
1.854	0.00473	-0.002136	0.025635	0.027618	0.014496	0.018616	0.059357	-0.016174	0.011597	0.000763	0.031281	0.032196	0.041199	0.058594	0.074005	0.001678	0.048676	-0.050507	0.34317	0.078278	0.23056	0.098572	0.17914	0.6897	0.37079	-0.016327	0.084381	-0.011749	0.17441	-0.2739	0.003204	-0.016479
1.855	0.01297	-0.017853	0.024109	0.01297	0.006256	0.000916	0.0737	-0.000916	0.016937	0.005646	0.077362	0.02533	0.028839	0.008698	0.42664	-0.007782	0.060425	-0.15595	0.17471	-0.019989	0.26672	0.052338	0.49118	2.0215	0.009308	0.000305	0.1474	-0.005341	0.31006	0.16098	-0.001984	-0.015259
1.856	0.018921	-0.015411	0.012207	-0.019836	0.005646	-0.001373	0.12116	-0.02121	0.010834	0.017242	0.19318	0.010071	0.035553	0.02533	0.98038	-0.010071	0.05188	-0.22263	-0.46204	-0.08728	-0.018768	-0.031586	0.58731	1.6965	-0.29709	-0.001678	0.23056	-0.004272	0.22812	0.38788	-0.00061	-0.010986
1.857	0.024109	0.027618	0.016327	-0.013428	-0.012512	0.002594	0.12695	-0.014648	0.005798	0.002136	-0.002594	0.025177	0.09201	0.091248	-0.20721	0.002594	0.042572	-0.26032	-0.76782	-0.13565	-0.095673	-0.000916	0.41168	0.55145	-0.025635	0.002899	0.27786	-0.006104	-0.012207	0.45837	-0.001526	-0.002594
1.858	0.024719	0.06134	0.029907	-0.010071	0.011597	-0.012817	0.067596	-0.011444	0.019989	-0.001373	-0.065002	-0.001526	0.090179	0.039673	-0.059052	0.005035	0.056458	-0.22263	-0.55603	-0.1149	0.018463	-0.024567	0.049744	-0.99091	0.82626	0.009766	0.25528	-0.010681	-0.23285	0.14633	-0.001068	0.002289
1.859	0.021515	0.092926	0.040436	0.006714	0.00412	-0.015717	0.024109	-0.015106	0.023804	0.008698	0.028839	0.013428	0.052338	0.029907	-0.15839	0.001678	0.045929	-0.17624	0.060577	-0.073853	0.14725	-0.04776	-0.46173	-1.904	1.3222	0.010529	0.22903	-0.013123	-0.33539	-0.099945	0.000305	-0.010071
1.86	0.013123	0.11658	0.010071	0.033569	0.006714	-0.005035	-0.026703	-0.010223	0.03067	-0.005493	-0.009308	0.003357	0.069275	0.054474	-0.18188	0.000153	-0.034943	-0.18341	-0.053101	0.094757	0.20981	-0.063782	-0.77194	-2.2459	1.3992	0.005035	0.13031	-0.005646	-0.16495	-0.14877	-0.000305	-0.002136
1.861	0.007477	0.097809	-0.032349	0.023193	0.006256	-0.006409	-0.053253	-0.013733	0.0383	-0.010681	-0.10788	0.016174	0.091553	0.045929	-0.1944	0.006866	-0.055542	-0.16113	-0.36758	0.078583	0.018005	-0.028687	-0.85464	-1.7145	1.0999	-0.016327	-0.084534	-0.049591	-0.14725	-0.24048	-0.001373	0.000305
1.862	0.007172	0.10223	-0.031128	0.013275	0.00473	-0.034027	-0.095825	-0.013428	0.037842	-0.007477	-0.01358	0.014496	0.038605	0.112	-0.034637	0.001373	-0.007782	-0.09613	-0.3508	0.09613	-0.071564	-0.052795	-0.3801	-0.9874	0.00824	-0.028839	-0.39337	-0.11581	-0.088806	-0.37994	-0.00351	-0.004272
1.863	0.003815	0.13397	-0.023041	0.012207	0.010376	-0.011139	-0.16235	-0.000458	0.038147	0.010376	0.009308	0.005646	0.006104	0.065308	-0.032349	-0.003815	-0.009308	-0.016327	-0.2594	0.08606	-0.094757	-0.068665	0.16785	-0.44067	-1.2904	0.022736	-0.37384	-0.2742	-0.086517	-0.87387	-0.000916	-0.007782
1.864	0.005188	0.16556	0.082855	0.019226	0.010986	-0.000305	-0.20569	-0.015564	0.038452	0.011749	-0.075226	0.008698	0.042419	0.040436	-0.084839	-0.004578	-0.00946	0.041656	0.1709	0.014496	-0.18677	-0.091858	0.44998	-0.13351	-1.7203	0.043488	-0.25436	0.063324	-0.11108	-1.0724	-0.010376	-0.026855
1.865	0.005035	0.13458	0.045929	0.00885	0.010986	-0.003204	-0.20737	-0.010986	0.034027	0.000916	0.026398	0.002441	0.057373	0.003967	0.2388	-0.002747	-0.051575	-0.11078	0.59311	0.001526	-0.159	-0.059814	0.56778	-0.34744	-1.3408	0.001831	-0.12405	0.12756	-0.33173	-0.77484	-0.000305	-0.030212
1.866	-0.000153	0.12955	0.023041	-0.001068	0.00885	0.010071	-0.17059	-0.016785	0.039825	0.014954	-0.04303	0.013733	0.06546	-0.058136	-0.030823	0.01358	-0.10651	-0.19333	0.354	-0.023804	-0.010529	-0.061798	0.4631	-0.7988	-0.57846	-0.018768	-0.10651	-0.17944	-0.1294	-0.18646	0.001984	-0.019531
1.867	0.005035	0.14145	0.079956	0.005188	0.005798	0.00946	-0.11581	-0.013733	0.041504	-0.019073	-0.16098	0.010223	0.12299	0.015717	0.19119	0.005646	-0.15442	-0.17822	0.052338	-0.033875	0.24719	-0.025635	0.36377	-0.54718	0.057526	-0.015106	-0.094452	-0.74631	-0.11704	0.35309	-0.003967	-0.009613
1.868	0.00473	0.13962	0.092468	0.010834	0.006104	0.002289	-0.055542	-0.00946	0.035095	-0.026398	0.10284	0.009613	0.09964	0.085297	0.15091	0.020752	-0.12405	-0.074768	-0.15915	-0.02121	0.12817	0.001831	0.53146	0.036316	0.66238	-0.019531	-0.031281	0.37521	-0.093689	0.86014	0.000153	-0.002441
1.869	0.002441	0.13519	0.081177	0.011902	0.006714	0.010681	-0.033112	-0.009003	0.032959	-0.022736	0.17883	-0.003967	0.10208	0.041046	0.004883	0.009308	-0.078888	-0.11276	-0.05188	0.040588	0.1532	0.14069	0.76111	0.15579	0.84396	-0.049744	0.11688	0.59021	0.18616	1.161	-0.001831	0.000763
1.87	0.003967	0.12985	0.076294	0.027466	0.001984	0.012817	-0.020752	-0.005341	0.030212	-0.012817	0.16998	0.006104	0.080414	0.010376	0.044403	-0.002289	-0.067444	-0.10284	-0.11154	0.027924	0.13275	0.17593	0.38498	0.6778	0.92178	-0.034027	0.30945	0.2887	0.34241	0.62927	0	0.011902
1.871	0.004883	0.11124	0.018158	0.040283	-0.001984	0.030975	0.034943	0.002441	0.018158	0.00473	-0.032501	0.015106	0.071259	0.004272	-0.15564	-0.005646	-0.11536	-0.071106	0.027161	-0.065308	0.23315	0.15945	-0.099945	1.0182	0.89264	-0.020142	0.44296	-0.046082	0.30518	0.28534	-0.001373	-0.001678
1.872	0.004425	0.11948	0.028534	0.000305	0.003967	0.010223	0.067444	-0.001678	0.002747	-0.004272	-0.089874	0.006256	0.076447	0.025635	-0.26657	-0.014038	-0.066528	-0.13763	-0.24017	-0.12299	0.1358	0.090637	-0.51056	0.53131	0.40314	-0.016937	0.27679	0.12177	0.075684	0.094757	0.002289	-0.011597
1.873	0.003662	0.1297	0.031586	-0.032959	0.003052	0.022278	0.081024	-0.003662	0.000458	0.010376	-0.058899	0.004883	0.06134	0.016632	-0.19363	-0.007019	-0.027924	-0.26032	-0.4042	-0.013885	0.049286	0.012054	-0.7222	0.22293	-0.66238	0.002594	0.018158	0.09079	-0.099182	-0.065918	-0.000305	-0.009918
1.874	-0.004578	0.10757	0.01358	-0.030212	0.004272	-0.005798	-0.005493	-0.004578	-0.004272	0.010681	-0.037384	0.008392	0.074615	-0.012817	-0.064087	0.007782	0.007019	-0.2272	0.20325	0.038757	0.009308	-0.06546	-0.6691	-0.24536	-1.3524	0.001984	-0.50888	0.0383	-0.15182	-0.31876	-0.00061	-0.00824
1.875	0.001678	0.095367	0.055847	-0.029907	-0.000763	0.017395	-0.084381	-0.005951	-0.009613	-0.003357	-0.063629	0.002441	0.085144	-0.044556	0.036469	0.000916	0.07782	-0.14358	0.011749	0.047913	-0.077515	-0.11734	-0.21652	-0.77606	-1.2663	-0.016327	-0.47012	-0.014801	-0.023193	-0.73593	0.000153	-0.015869
1.876	-0.005188	0.1059	0.077515	-0.033417	0.006714	0.018921	-0.11032	-0.004883	-0.010223	-0.02594	-0.045929	0.010223	0.071106	0.001526	0.093842	0.00946	0.13306	-0.13534	-0.17929	0.06485	-0.11917	-0.13809	0.052948	-1.0461	-0.77103	-0.014038	-0.020905	-0.21149	-0.014191	-1.0405	0.000763	-0.010376
